<mxfile host="65bd71144e">
    <diagram id="GLad9e94ZodQLe4gA4xU" name="Page-1">
        <mxGraphModel dx="2504" dy="537" grid="1" gridSize="10" guides="1" tooltips="1" connect="1" arrows="1" fold="1" page="1" pageScale="1" pageWidth="827" pageHeight="1169" math="0" shadow="0">
            <root>
                <mxCell id="0"/>
                <mxCell id="1" parent="0"/>
                <mxCell id="2" value="INICIO" style="ellipse;whiteSpace=wrap;html=1;fillColor=#60a917;fontColor=#ffffff;strokeColor=#2D7600;" parent="1" vertex="1">
                    <mxGeometry x="360" y="40" width="116" height="80" as="geometry"/>
                </mxCell>
                <mxCell id="3" value="" style="endArrow=classic;html=1;" edge="1" parent="1">
                    <mxGeometry width="50" height="50" relative="1" as="geometry">
                        <mxPoint x="417.5" y="120" as="sourcePoint"/>
                        <mxPoint x="417.5" y="190" as="targetPoint"/>
                    </mxGeometry>
                </mxCell>
                <mxCell id="4" value="&lt;font style=&quot;font-size: 14px;&quot;&gt;Peso&lt;br&gt;Altura&lt;/font&gt;" style="shape=parallelogram;perimeter=parallelogramPerimeter;whiteSpace=wrap;html=1;fixedSize=1;fillColor=#a20025;fontColor=#ffffff;strokeColor=#6F0000;" vertex="1" parent="1">
                    <mxGeometry x="354" y="190" width="120" height="60" as="geometry"/>
                </mxCell>
                <mxCell id="6" value="" style="endArrow=classic;html=1;fontSize=14;" edge="1" parent="1">
                    <mxGeometry width="50" height="50" relative="1" as="geometry">
                        <mxPoint x="414" y="250" as="sourcePoint"/>
                        <mxPoint x="414" y="310" as="targetPoint"/>
                    </mxGeometry>
                </mxCell>
                <mxCell id="7" value="(IMC =PESO[kg]/&lt;br&gt;ALTURA2[M])" style="rounded=0;whiteSpace=wrap;html=1;fontSize=14;fillColor=#1ba1e2;fontColor=#ffffff;strokeColor=#006EAF;" vertex="1" parent="1">
                    <mxGeometry x="360" y="310" width="120" height="60" as="geometry"/>
                </mxCell>
                <mxCell id="9" value="" style="endArrow=classic;html=1;fontSize=14;" edge="1" parent="1">
                    <mxGeometry width="50" height="50" relative="1" as="geometry">
                        <mxPoint x="414" y="370" as="sourcePoint"/>
                        <mxPoint x="414" y="440" as="targetPoint"/>
                    </mxGeometry>
                </mxCell>
                <mxCell id="10" value="IMC &amp;lt; 16" style="rhombus;whiteSpace=wrap;html=1;fontSize=14;fillColor=#e3c800;fontColor=#000000;strokeColor=#B09500;" vertex="1" parent="1">
                    <mxGeometry x="374" y="440" width="80" height="80" as="geometry"/>
                </mxCell>
                <mxCell id="11" value="TRUE" style="text;html=1;align=center;verticalAlign=middle;resizable=0;points=[];autosize=1;strokeColor=none;fillColor=none;fontSize=14;" vertex="1" parent="1">
                    <mxGeometry x="450" y="445" width="60" height="30" as="geometry"/>
                </mxCell>
                <mxCell id="13" value="" style="endArrow=classic;html=1;fontSize=14;" edge="1" parent="1">
                    <mxGeometry width="50" height="50" relative="1" as="geometry">
                        <mxPoint x="374" y="480" as="sourcePoint"/>
                        <mxPoint x="240" y="540" as="targetPoint"/>
                        <Array as="points">
                            <mxPoint x="240" y="480"/>
                        </Array>
                    </mxGeometry>
                </mxCell>
                <mxCell id="14" value="IMC &amp;lt;=17" style="rhombus;whiteSpace=wrap;html=1;fontSize=14;fillColor=#e3c800;fontColor=#000000;strokeColor=#B09500;" vertex="1" parent="1">
                    <mxGeometry x="200" y="540" width="80" height="80" as="geometry"/>
                </mxCell>
                <mxCell id="15" value="FALSE" style="text;html=1;align=center;verticalAlign=middle;resizable=0;points=[];autosize=1;strokeColor=none;fillColor=none;fontSize=14;" vertex="1" parent="1">
                    <mxGeometry x="315" y="445" width="70" height="30" as="geometry"/>
                </mxCell>
                <mxCell id="16" value="" style="endArrow=classic;html=1;fontSize=14;" edge="1" parent="1">
                    <mxGeometry width="50" height="50" relative="1" as="geometry">
                        <mxPoint x="455" y="480" as="sourcePoint"/>
                        <mxPoint x="720" y="530" as="targetPoint"/>
                        <Array as="points">
                            <mxPoint x="720" y="480"/>
                        </Array>
                    </mxGeometry>
                </mxCell>
                <mxCell id="17" value="" style="endArrow=classic;html=1;fontSize=14;" edge="1" parent="1">
                    <mxGeometry width="50" height="50" relative="1" as="geometry">
                        <mxPoint x="280" y="580" as="sourcePoint"/>
                        <mxPoint x="560" y="600" as="targetPoint"/>
                        <Array as="points">
                            <mxPoint x="560" y="580"/>
                        </Array>
                    </mxGeometry>
                </mxCell>
                <mxCell id="18" value="TRUE" style="text;html=1;align=center;verticalAlign=middle;resizable=0;points=[];autosize=1;strokeColor=none;fillColor=none;fontSize=14;" vertex="1" parent="1">
                    <mxGeometry x="270" y="550" width="60" height="30" as="geometry"/>
                </mxCell>
                <mxCell id="19" value="" style="endArrow=classic;html=1;fontSize=14;" edge="1" parent="1">
                    <mxGeometry width="50" height="50" relative="1" as="geometry">
                        <mxPoint x="200" y="580" as="sourcePoint"/>
                        <mxPoint x="90" y="630" as="targetPoint"/>
                        <Array as="points">
                            <mxPoint x="90" y="580"/>
                        </Array>
                    </mxGeometry>
                </mxCell>
                <mxCell id="20" value="FALSE" style="text;html=1;align=center;verticalAlign=middle;resizable=0;points=[];autosize=1;strokeColor=none;fillColor=none;fontSize=14;" vertex="1" parent="1">
                    <mxGeometry x="150" y="550" width="70" height="30" as="geometry"/>
                </mxCell>
                <mxCell id="21" value="IMC &amp;lt;= 18" style="rhombus;whiteSpace=wrap;html=1;fontSize=14;fillColor=#e3c800;fontColor=#000000;strokeColor=#B09500;" vertex="1" parent="1">
                    <mxGeometry x="50" y="630" width="80" height="80" as="geometry"/>
                </mxCell>
                <mxCell id="22" value="RESULTADO" style="rounded=0;whiteSpace=wrap;html=1;fontSize=14;fillColor=#1ba1e2;fontColor=#ffffff;strokeColor=#006EAF;" vertex="1" parent="1">
                    <mxGeometry x="510" y="600" width="110" height="50" as="geometry"/>
                </mxCell>
                <mxCell id="23" value="RESULTADO" style="rounded=0;whiteSpace=wrap;html=1;fontSize=14;fillColor=#1ba1e2;fontColor=#ffffff;strokeColor=#006EAF;" vertex="1" parent="1">
                    <mxGeometry x="670" y="535" width="110" height="50" as="geometry"/>
                </mxCell>
                <mxCell id="24" value="" style="endArrow=classic;html=1;fontSize=14;" edge="1" parent="1">
                    <mxGeometry width="50" height="50" relative="1" as="geometry">
                        <mxPoint x="130" y="670" as="sourcePoint"/>
                        <mxPoint x="320" y="690" as="targetPoint"/>
                        <Array as="points">
                            <mxPoint x="320" y="670"/>
                        </Array>
                    </mxGeometry>
                </mxCell>
                <mxCell id="25" value="RESUTADO" style="rounded=0;whiteSpace=wrap;html=1;fontSize=14;fillColor=#1ba1e2;fontColor=#ffffff;strokeColor=#006EAF;" vertex="1" parent="1">
                    <mxGeometry x="270" y="690" width="110" height="50" as="geometry"/>
                </mxCell>
                <mxCell id="26" value="TRUE" style="text;html=1;align=center;verticalAlign=middle;resizable=0;points=[];autosize=1;strokeColor=none;fillColor=none;fontSize=14;" vertex="1" parent="1">
                    <mxGeometry x="120" y="640" width="60" height="30" as="geometry"/>
                </mxCell>
                <mxCell id="27" value="FALSE" style="text;html=1;align=center;verticalAlign=middle;resizable=0;points=[];autosize=1;strokeColor=none;fillColor=none;fontSize=14;" vertex="1" parent="1">
                    <mxGeometry y="640" width="70" height="30" as="geometry"/>
                </mxCell>
                <mxCell id="28" value="IMC &amp;lt;= 25" style="rhombus;whiteSpace=wrap;html=1;fontSize=14;fillColor=#e3c800;fontColor=#000000;strokeColor=#B09500;" vertex="1" parent="1">
                    <mxGeometry x="-110" y="720" width="80" height="80" as="geometry"/>
                </mxCell>
                <mxCell id="29" value="" style="endArrow=classic;html=1;fontSize=14;entryX=0.5;entryY=0;entryDx=0;entryDy=0;" edge="1" parent="1" target="28">
                    <mxGeometry width="50" height="50" relative="1" as="geometry">
                        <mxPoint x="50" y="670" as="sourcePoint"/>
                        <mxPoint x="100" y="620" as="targetPoint"/>
                        <Array as="points">
                            <mxPoint x="-70" y="670"/>
                        </Array>
                    </mxGeometry>
                </mxCell>
                <mxCell id="30" value="" style="endArrow=classic;html=1;fontSize=14;" edge="1" parent="1">
                    <mxGeometry width="50" height="50" relative="1" as="geometry">
                        <mxPoint x="-30" y="760" as="sourcePoint"/>
                        <mxPoint x="140" y="780" as="targetPoint"/>
                        <Array as="points">
                            <mxPoint x="140" y="760"/>
                        </Array>
                    </mxGeometry>
                </mxCell>
                <mxCell id="31" value="RESULTADO" style="rounded=0;whiteSpace=wrap;html=1;fontSize=14;fillColor=#1ba1e2;fontColor=#ffffff;strokeColor=#006EAF;" vertex="1" parent="1">
                    <mxGeometry x="80" y="780" width="120" height="50" as="geometry"/>
                </mxCell>
                <mxCell id="32" value="TRUE" style="text;html=1;align=center;verticalAlign=middle;resizable=0;points=[];autosize=1;strokeColor=none;fillColor=none;fontSize=14;" vertex="1" parent="1">
                    <mxGeometry x="-30" y="730" width="60" height="30" as="geometry"/>
                </mxCell>
                <mxCell id="33" value="" style="endArrow=classic;html=1;fontSize=14;" edge="1" parent="1">
                    <mxGeometry width="50" height="50" relative="1" as="geometry">
                        <mxPoint x="-110" y="760" as="sourcePoint"/>
                        <mxPoint x="-250" y="790" as="targetPoint"/>
                        <Array as="points">
                            <mxPoint x="-250" y="760"/>
                        </Array>
                    </mxGeometry>
                </mxCell>
                <mxCell id="34" value="FALSE" style="text;html=1;align=center;verticalAlign=middle;resizable=0;points=[];autosize=1;strokeColor=none;fillColor=none;fontSize=14;" vertex="1" parent="1">
                    <mxGeometry x="-165" y="730" width="70" height="30" as="geometry"/>
                </mxCell>
                <mxCell id="35" value="IMC &amp;lt;= 30" style="rhombus;whiteSpace=wrap;html=1;fontSize=14;fillColor=#e3c800;fontColor=#000000;strokeColor=#B09500;" vertex="1" parent="1">
                    <mxGeometry x="-290" y="790" width="80" height="80" as="geometry"/>
                </mxCell>
                <mxCell id="36" value="" style="endArrow=classic;html=1;fontSize=14;" edge="1" parent="1">
                    <mxGeometry width="50" height="50" relative="1" as="geometry">
                        <mxPoint x="-290" y="829.5" as="sourcePoint"/>
                        <mxPoint x="-440" y="870" as="targetPoint"/>
                        <Array as="points">
                            <mxPoint x="-440" y="830"/>
                        </Array>
                    </mxGeometry>
                </mxCell>
                <mxCell id="37" value="" style="endArrow=classic;html=1;fontSize=14;" edge="1" parent="1">
                    <mxGeometry width="50" height="50" relative="1" as="geometry">
                        <mxPoint x="-210" y="830" as="sourcePoint"/>
                        <mxPoint x="-40" y="870" as="targetPoint"/>
                        <Array as="points">
                            <mxPoint x="-40" y="830"/>
                        </Array>
                    </mxGeometry>
                </mxCell>
                <mxCell id="38" value="RESULTADO" style="rounded=0;whiteSpace=wrap;html=1;fontSize=14;fillColor=#1ba1e2;fontColor=#ffffff;strokeColor=#006EAF;" vertex="1" parent="1">
                    <mxGeometry x="-95" y="870" width="105" height="50" as="geometry"/>
                </mxCell>
                <mxCell id="39" value="TRUE" style="text;html=1;align=center;verticalAlign=middle;resizable=0;points=[];autosize=1;strokeColor=none;fillColor=none;fontSize=14;" vertex="1" parent="1">
                    <mxGeometry x="-210" y="800" width="60" height="30" as="geometry"/>
                </mxCell>
                <mxCell id="40" value="FALSE" style="text;html=1;align=center;verticalAlign=middle;resizable=0;points=[];autosize=1;strokeColor=none;fillColor=none;fontSize=14;" vertex="1" parent="1">
                    <mxGeometry x="-350" y="800" width="70" height="30" as="geometry"/>
                </mxCell>
                <mxCell id="41" value="IMC &amp;lt;= 35" style="rhombus;whiteSpace=wrap;html=1;fontSize=14;fillColor=#e3c800;fontColor=#000000;strokeColor=#B09500;" vertex="1" parent="1">
                    <mxGeometry x="-480" y="870" width="80" height="80" as="geometry"/>
                </mxCell>
                <mxCell id="42" value="" style="endArrow=classic;html=1;fontSize=14;" edge="1" parent="1">
                    <mxGeometry width="50" height="50" relative="1" as="geometry">
                        <mxPoint x="-400" y="910" as="sourcePoint"/>
                        <mxPoint x="-220" y="950" as="targetPoint"/>
                        <Array as="points">
                            <mxPoint x="-220" y="910"/>
                        </Array>
                    </mxGeometry>
                </mxCell>
                <mxCell id="43" value="RESULTADO" style="rounded=0;whiteSpace=wrap;html=1;fontSize=14;fillColor=#1ba1e2;fontColor=#ffffff;strokeColor=#006EAF;" vertex="1" parent="1">
                    <mxGeometry x="-270" y="950" width="120" height="50" as="geometry"/>
                </mxCell>
                <mxCell id="44" value="TRUE" style="text;html=1;align=center;verticalAlign=middle;resizable=0;points=[];autosize=1;strokeColor=none;fillColor=none;fontSize=14;" vertex="1" parent="1">
                    <mxGeometry x="-410" y="880" width="60" height="30" as="geometry"/>
                </mxCell>
                <mxCell id="45" value="" style="endArrow=classic;html=1;fontSize=14;entryX=0.5;entryY=0;entryDx=0;entryDy=0;" edge="1" parent="1" target="46">
                    <mxGeometry width="50" height="50" relative="1" as="geometry">
                        <mxPoint x="-490" y="910" as="sourcePoint"/>
                        <mxPoint x="-610" y="950" as="targetPoint"/>
                        <Array as="points">
                            <mxPoint x="-480" y="910"/>
                            <mxPoint x="-490" y="910"/>
                            <mxPoint x="-610" y="910"/>
                        </Array>
                    </mxGeometry>
                </mxCell>
                <mxCell id="46" value="IMC &amp;lt; 40" style="rhombus;whiteSpace=wrap;html=1;fontSize=14;fillColor=#e3c800;fontColor=#000000;strokeColor=#B09500;" vertex="1" parent="1">
                    <mxGeometry x="-650" y="960" width="80" height="80" as="geometry"/>
                </mxCell>
                <mxCell id="47" value="FALSE" style="text;html=1;align=center;verticalAlign=middle;resizable=0;points=[];autosize=1;strokeColor=none;fillColor=none;fontSize=14;" vertex="1" parent="1">
                    <mxGeometry x="-535" y="875" width="70" height="30" as="geometry"/>
                </mxCell>
                <mxCell id="48" value="" style="endArrow=classic;html=1;fontSize=14;" edge="1" parent="1">
                    <mxGeometry width="50" height="50" relative="1" as="geometry">
                        <mxPoint x="-570" y="1000" as="sourcePoint"/>
                        <mxPoint x="-400" y="1030" as="targetPoint"/>
                        <Array as="points">
                            <mxPoint x="-400" y="1000"/>
                        </Array>
                    </mxGeometry>
                </mxCell>
                <mxCell id="49" value="RESULTADO" style="rounded=0;whiteSpace=wrap;html=1;fontSize=14;fillColor=#1ba1e2;fontColor=#ffffff;strokeColor=#006EAF;" vertex="1" parent="1">
                    <mxGeometry x="-460" y="1030" width="120" height="50" as="geometry"/>
                </mxCell>
                <mxCell id="50" value="TRUE" style="text;html=1;align=center;verticalAlign=middle;resizable=0;points=[];autosize=1;strokeColor=none;fillColor=none;fontSize=14;" vertex="1" parent="1">
                    <mxGeometry x="-580" y="970" width="60" height="30" as="geometry"/>
                </mxCell>
                <mxCell id="51" value="" style="endArrow=classic;html=1;fontSize=14;" edge="1" parent="1">
                    <mxGeometry width="50" height="50" relative="1" as="geometry">
                        <mxPoint x="-650" y="999" as="sourcePoint"/>
                        <mxPoint x="-810" y="1030" as="targetPoint"/>
                        <Array as="points">
                            <mxPoint x="-810" y="1000"/>
                        </Array>
                    </mxGeometry>
                </mxCell>
                <mxCell id="52" value="IMC &amp;lt; 40" style="rhombus;whiteSpace=wrap;html=1;fontSize=14;fillColor=#e3c800;fontColor=#000000;strokeColor=#B09500;" vertex="1" parent="1">
                    <mxGeometry x="-850" y="1030" width="80" height="80" as="geometry"/>
                </mxCell>
                <mxCell id="53" value="FALSE" style="text;html=1;align=center;verticalAlign=middle;resizable=0;points=[];autosize=1;strokeColor=none;fillColor=none;fontSize=14;" vertex="1" parent="1">
                    <mxGeometry x="-705" y="970" width="70" height="30" as="geometry"/>
                </mxCell>
                <mxCell id="54" value="" style="endArrow=classic;html=1;fontSize=14;" edge="1" parent="1">
                    <mxGeometry width="50" height="50" relative="1" as="geometry">
                        <mxPoint x="-770" y="1070" as="sourcePoint"/>
                        <mxPoint x="-640" y="1100" as="targetPoint"/>
                        <Array as="points">
                            <mxPoint x="-640" y="1070"/>
                        </Array>
                    </mxGeometry>
                </mxCell>
                <mxCell id="55" value="RESUTADO" style="rounded=0;whiteSpace=wrap;html=1;fontSize=14;fillColor=#1ba1e2;fontColor=#ffffff;strokeColor=#006EAF;" vertex="1" parent="1">
                    <mxGeometry x="-700" y="1100" width="120" height="50" as="geometry"/>
                </mxCell>
                <mxCell id="56" value="TRUE" style="text;html=1;align=center;verticalAlign=middle;resizable=0;points=[];autosize=1;strokeColor=none;fillColor=none;fontSize=14;" vertex="1" parent="1">
                    <mxGeometry x="-780" y="1040" width="60" height="30" as="geometry"/>
                </mxCell>
                <mxCell id="57" value="" style="endArrow=classic;html=1;fontSize=14;" edge="1" parent="1">
                    <mxGeometry width="50" height="50" relative="1" as="geometry">
                        <mxPoint x="-850" y="1069" as="sourcePoint"/>
                        <mxPoint x="320" y="1270" as="targetPoint"/>
                        <Array as="points">
                            <mxPoint x="-960" y="1069"/>
                            <mxPoint x="-960" y="1250"/>
                            <mxPoint x="320" y="1240"/>
                        </Array>
                    </mxGeometry>
                </mxCell>
                <mxCell id="58" value="" style="endArrow=classic;html=1;fontSize=14;" edge="1" parent="1">
                    <mxGeometry width="50" height="50" relative="1" as="geometry">
                        <mxPoint x="-640" y="1150" as="sourcePoint"/>
                        <mxPoint x="320" y="1240" as="targetPoint"/>
                        <Array as="points">
                            <mxPoint x="-640" y="1180"/>
                            <mxPoint x="320" y="1180"/>
                        </Array>
                    </mxGeometry>
                </mxCell>
                <mxCell id="59" value="" style="endArrow=none;html=1;fontSize=14;" edge="1" parent="1">
                    <mxGeometry width="50" height="50" relative="1" as="geometry">
                        <mxPoint x="-390" y="1180" as="sourcePoint"/>
                        <mxPoint x="-400" y="1080" as="targetPoint"/>
                        <Array as="points">
                            <mxPoint x="-400" y="1170"/>
                        </Array>
                    </mxGeometry>
                </mxCell>
                <mxCell id="60" value="" style="endArrow=none;html=1;fontSize=14;" edge="1" parent="1">
                    <mxGeometry width="50" height="50" relative="1" as="geometry">
                        <mxPoint x="-200" y="1180" as="sourcePoint"/>
                        <mxPoint x="-210" y="1000" as="targetPoint"/>
                        <Array as="points">
                            <mxPoint x="-210" y="1170"/>
                        </Array>
                    </mxGeometry>
                </mxCell>
                <mxCell id="61" value="" style="endArrow=none;html=1;fontSize=14;" edge="1" parent="1">
                    <mxGeometry width="50" height="50" relative="1" as="geometry">
                        <mxPoint x="-30" y="1180" as="sourcePoint"/>
                        <mxPoint x="-40" y="920" as="targetPoint"/>
                        <Array as="points">
                            <mxPoint x="-40" y="1160"/>
                        </Array>
                    </mxGeometry>
                </mxCell>
                <mxCell id="62" value="" style="endArrow=none;html=1;fontSize=14;" edge="1" parent="1">
                    <mxGeometry width="50" height="50" relative="1" as="geometry">
                        <mxPoint x="150" y="1180" as="sourcePoint"/>
                        <mxPoint x="140" y="830" as="targetPoint"/>
                        <Array as="points">
                            <mxPoint x="140" y="1170"/>
                            <mxPoint x="140" y="1160"/>
                        </Array>
                    </mxGeometry>
                </mxCell>
                <mxCell id="63" value="" style="endArrow=none;html=1;fontSize=14;entryX=0.44;entryY=1.02;entryDx=0;entryDy=0;entryPerimeter=0;" edge="1" parent="1" target="25">
                    <mxGeometry width="50" height="50" relative="1" as="geometry">
                        <mxPoint x="318" y="1180" as="sourcePoint"/>
                        <mxPoint x="330" y="740" as="targetPoint"/>
                        <Array as="points"/>
                    </mxGeometry>
                </mxCell>
                <mxCell id="64" value="&lt;br&gt;PRINT&lt;br&gt;(&quot;RESULTADO&quot;)" style="shape=document;whiteSpace=wrap;html=1;boundedLbl=1;fontSize=14;fillColor=#d80073;fontColor=#ffffff;strokeColor=#A50040;" vertex="1" parent="1">
                    <mxGeometry x="265" y="1270" width="105" height="70" as="geometry"/>
                </mxCell>
                <mxCell id="65" value="" style="endArrow=classic;html=1;fontSize=14;" edge="1" parent="1">
                    <mxGeometry width="50" height="50" relative="1" as="geometry">
                        <mxPoint x="317" y="1330" as="sourcePoint"/>
                        <mxPoint x="317" y="1390" as="targetPoint"/>
                    </mxGeometry>
                </mxCell>
                <mxCell id="67" value="FIN" style="ellipse;whiteSpace=wrap;html=1;fontSize=14;fillColor=#6a00ff;fontColor=#ffffff;strokeColor=#3700CC;" vertex="1" parent="1">
                    <mxGeometry x="260" y="1390" width="110" height="60" as="geometry"/>
                </mxCell>
                <mxCell id="69" value="" style="endArrow=none;html=1;fontSize=14;" edge="1" parent="1">
                    <mxGeometry width="50" height="50" relative="1" as="geometry">
                        <mxPoint x="320" y="1180" as="sourcePoint"/>
                        <mxPoint x="730" y="585" as="targetPoint"/>
                        <Array as="points">
                            <mxPoint x="730" y="1180"/>
                        </Array>
                    </mxGeometry>
                </mxCell>
                <mxCell id="70" value="" style="endArrow=none;html=1;fontSize=14;" edge="1" parent="1">
                    <mxGeometry width="50" height="50" relative="1" as="geometry">
                        <mxPoint x="560" y="1180" as="sourcePoint"/>
                        <mxPoint x="570" y="650" as="targetPoint"/>
                        <Array as="points">
                            <mxPoint x="570" y="1170"/>
                        </Array>
                    </mxGeometry>
                </mxCell>
            </root>
        </mxGraphModel>
    </diagram>
</mxfile>